<svg xmlns="http://www.w3.org/2000/svg">
  <defs>
    <symbol id="icon-comment" viewBox= "-5.0 -10.0 110.0 135.0">
        <svg xmlns="http://www.w3.org/2000/svg" version="1.1" viewBox="-5.0 -10.0 110.0 135.0">
        <path d="m62.102 25.16c-3.332-1.1602-8.1016-1.5586-12.871 3.1094-5.3711-3.9414-10.09-2.8984-13.199-1.2188-4.4805 2.5156-7.2305 7.2812-7.1719 12.418 0 4.75 2 9.1797 5.8906 13.172 4.5156 4.4336 9.6719 8.1641 15.301 11.059l0.12891 0.070312h0.070312c0.14844 0.058594 0.28906 0.10156 0.39062 0.12891 0.11719 0.042968 0.23828 0.078124 0.35938 0.10156 0.17188 0 0.33984 0 0.53906 0.058594h0.30078c0.074218 0.011718 0.14844 0.011718 0.21875 0 0.19141-0.027344 0.37891-0.070313 0.5625-0.12891l0.30859-0.12109 0.32031-0.16016c0.09375-0.046876 0.1875-0.10156 0.26953-0.16797 5.1602-3.6953 9.7266-8.1562 13.551-13.219 3.2383-4.4805 4.5586-9.1289 3.9102-13.84-0.68359-5.0938-4.0859-9.4102-8.8789-11.262zm2 22.91c-3.5586 4.6758-7.7891 8.8008-12.551 12.238-5.207-2.7109-9.9805-6.1875-14.16-10.309-3.1719-3.2695-4.7891-6.8281-4.8203-10.602-0.058593-3.7656 1.9414-7.2617 5.2188-9.1172 1.1836-0.67969 2.5195-1.043 3.8828-1.0625 2.1484 0 4.3086 1 6.5117 2.9219h-0.003906c0.37109 0.33594 0.86328 0.5 1.3594 0.46094 0.49219-0.019531 0.95313-0.23828 1.2812-0.60156 3-3.6016 6.3203-4.6992 10-3.3516 3.5078 1.375 5.9961 4.5469 6.4883 8.2812 0.51172 3.7188-0.57812 7.4805-3.2188 11.141z"/>
        <path d="m86.59 17.672c-2.1797-2.1602-5.1445-3.332-8.2109-3.25l-57.27 1.2773c-3.1523 0.058593-6.1328 1.4375-8.2188 3.8008-2.0977 2.3555-3.125 5.4766-2.8398 8.6211l3.3477 36.219c0.54297 5.8281 5.4297 10.289 11.281 10.301 0.37891 0.019531 0.76172 0.019531 1.1406 0l16.941-1.6602 7.7695 10.941c0.75391 1.0781 1.9922 1.7188 3.3086 1.707h0.16016c1.3789-0.050781 2.6328-0.80469 3.3203-2l7.5195-12.809 14.891-1.4609c5.8594-0.53516 10.324-5.4766 10.27-11.359v-32.219c0.011719-3.0547-1.2188-5.9844-3.4102-8.1094zm-0.30078 40.328c0.023438 3.9414-2.9727 7.2461-6.8984 7.6094l-15.82 1.5703c-0.046874-0.003907-0.09375-0.003907-0.14062 0-0.12891 0.023437-0.25781 0.058593-0.37891 0.10937-0.097656 0.039063-0.19141 0.085938-0.28125 0.14063-0.10938 0.070312-0.21094 0.15625-0.30078 0.25-0.078125 0.070312-0.14844 0.15234-0.20703 0.24219-0.046875 0.03125-0.085938 0.074219-0.12109 0.11719l-8 13.621c-0.054687 0.10938-0.16797 0.17578-0.28906 0.16797-0.12109 0.011719-0.23437-0.042969-0.30078-0.13672l-8.3906-11.781s-0.10156-0.078125-0.14844-0.12891c-0.09375-0.11328-0.19531-0.21484-0.3125-0.30078-0.085938-0.054688-0.17578-0.10156-0.26953-0.14062-0.11328-0.0625-0.23438-0.10938-0.35938-0.14062-0.12109-0.007813-0.24219-0.007813-0.35937 0-0.082032-0.003907-0.16016-0.003907-0.24219 0l-18 1.7617c-2.0352 0.20703-4.0742-0.41406-5.6484-1.7227-1.5781-1.3086-2.5625-3.1953-2.7305-5.2383l-3.3516-36.219c-0.19531-2.1172 0.49609-4.2227 1.9102-5.8086 1.4141-1.5898 3.4258-2.5156 5.5508-2.5625l57.262-1.2812h0.17187-0.003906c2.0312 0 3.9805 0.80469 5.418 2.2383 1.4375 1.4336 2.2422 3.3828 2.2422 5.4141z"/>
        <text x="0.0" y="117.5" font-size="5.0" font-weight="bold" font-family="Arbeit Regular, Helvetica, Arial-Unicode, Arial, Sans-serif" fill="#000000">Created by muhammad nasrullah</text><text x="0.0" y="122.5" font-size="5.0" font-weight="bold" font-family="Arbeit Regular, Helvetica, Arial-Unicode, Arial, Sans-serif" fill="#000000">from Noun Project</text></svg>
    </symbol>

    <!-- <symbol id="icon-brainstorm-fuel" viewBox= "0 0 100 125">
        <svg xmlns="http://www.w3.org/2000/svg" xmlns:xlink="http://www.w3.org/1999/xlink" version="1.1" x="0px" y="0px" viewBox="0 0 100 125" style="enable-background:new 0 0 100 100;" xml:space="preserve"><g><path d="M28.456,42.263c-0.347,6.265,2.029,12.356,6.519,16.711c3.721,3.61,5.854,8.582,5.854,13.641v2.838   c0,2.733,2.223,4.956,4.956,4.956h8.429c2.733,0,4.956-2.223,4.956-4.956v-2.835c0-5.124,2.083-10.048,5.714-13.508   c4.316-4.113,6.693-9.66,6.693-15.62c0-11.898-9.68-21.578-21.578-21.578c-0.812,0-1.637,0.046-2.452,0.136   C37.24,23.186,29.032,31.877,28.456,42.263z M47.877,25.029c0.707-0.078,1.421-0.118,2.123-0.118   c10.244,0,18.578,8.334,18.578,18.578c0,5.131-2.046,9.907-5.763,13.448c-4.223,4.023-6.645,9.739-6.645,15.68v2.835   c0,1.079-0.877,1.956-1.956,1.956h-8.429c-1.079,0-1.956-0.877-1.956-1.956v-2.838c0-5.865-2.466-11.622-6.766-15.794   c-3.866-3.75-5.912-8.995-5.613-14.392C31.947,33.489,39.009,26.009,47.877,25.029z"/><path d="M50,30.911c3.011,0,5.926,1.085,8.209,3.056c0.283,0.245,0.632,0.365,0.979,0.365c0.421,0,0.839-0.176,1.136-0.52   c0.542-0.627,0.472-1.574-0.155-2.115C57.342,29.255,53.73,27.911,50,27.911c-0.829,0-1.5,0.671-1.5,1.5S49.171,30.911,50,30.911z"/><path d="M62.578,43.489c0,0.829,0.671,1.5,1.5,1.5s1.5-0.671,1.5-1.5c0-1.926-0.349-3.808-1.038-5.593   c-0.298-0.772-1.165-1.157-1.939-0.859c-0.773,0.298-1.158,1.167-0.859,1.939C62.296,40.416,62.578,41.934,62.578,43.489z"/><path d="M42.74,85.474h14.52c0.829,0,1.5-0.671,1.5-1.5s-0.671-1.5-1.5-1.5H42.74c-0.829,0-1.5,0.671-1.5,1.5   S41.912,85.474,42.74,85.474z"/><path d="M42.74,90.237h14.52c0.829,0,1.5-0.671,1.5-1.5s-0.671-1.5-1.5-1.5H42.74c-0.829,0-1.5,0.671-1.5,1.5   S41.912,90.237,42.74,90.237z"/><path d="M55.13,93.5c0-0.829-0.671-1.5-1.5-1.5h-7.26c-0.829,0-1.5,0.671-1.5,1.5s0.671,1.5,1.5,1.5h7.26   C54.458,95,55.13,94.329,55.13,93.5z"/><path d="M13.056,41.944c0,0.829,0.671,1.5,1.5,1.5h8.686c0.829,0,1.5-0.671,1.5-1.5s-0.671-1.5-1.5-1.5h-8.686   C13.727,40.444,13.056,41.116,13.056,41.944z"/><path d="M85.444,40.444h-8.686c-0.829,0-1.5,0.671-1.5,1.5s0.671,1.5,1.5,1.5h8.686c0.829,0,1.5-0.671,1.5-1.5   S86.273,40.444,85.444,40.444z"/><path d="M48.5,6.5v8.686c0,0.829,0.671,1.5,1.5,1.5s1.5-0.671,1.5-1.5V6.5C51.5,5.671,50.829,5,50,5S48.5,5.671,48.5,6.5z"/><path d="M67.86,24.084c0.293,0.293,0.677,0.439,1.061,0.439s0.768-0.146,1.061-0.439l6.142-6.142c0.586-0.585,0.586-1.536,0-2.121   c-0.586-0.586-1.535-0.586-2.121,0l-6.142,6.142C67.274,22.548,67.274,23.499,67.86,24.084z"/><path d="M30.019,59.805l-6.142,6.142c-0.586,0.585-0.586,1.535,0,2.121c0.293,0.293,0.677,0.439,1.061,0.439   s0.768-0.146,1.061-0.439l6.142-6.142c0.586-0.585,0.586-1.535,0-2.121S30.604,59.219,30.019,59.805z"/><path d="M25.998,15.821c-0.586-0.586-1.535-0.586-2.121,0c-0.586,0.585-0.586,1.536,0,2.121l6.142,6.142   c0.293,0.293,0.677,0.439,1.061,0.439s0.768-0.146,1.061-0.439c0.586-0.585,0.586-1.536,0-2.121L25.998,15.821z"/><path d="M69.981,59.805c-0.586-0.586-1.535-0.586-2.121,0s-0.586,1.536,0,2.121l6.142,6.142c0.293,0.293,0.677,0.439,1.061,0.439   s0.768-0.146,1.061-0.439c0.586-0.586,0.586-1.536,0-2.121L69.981,59.805z"/></g><text x="0" y="115" fill="#000000" font-size="5px" font-weight="bold" font-family="'Helvetica Neue', Helvetica, Arial-Unicode, Arial, Sans-serif">Created by Maxim Kulikov</text><text x="0" y="120" fill="#000000" font-size="5px" font-weight="bold" font-family="'Helvetica Neue', Helvetica, Arial-Unicode, Arial, Sans-serif">from the Noun Project</text></svg>
    </symbol> -->
    </defs>
</svg>