<svg xmlns="http://www.w3.org/2000/svg" version="1.1" viewBox="-5.0 -10.0 110.0 135.0">
 <path d="m62.102 25.16c-3.332-1.1602-8.1016-1.5586-12.871 3.1094-5.3711-3.9414-10.09-2.8984-13.199-1.2188-4.4805 2.5156-7.2305 7.2812-7.1719 12.418 0 4.75 2 9.1797 5.8906 13.172 4.5156 4.4336 9.6719 8.1641 15.301 11.059l0.12891 0.070312h0.070312c0.14844 0.058594 0.28906 0.10156 0.39062 0.12891 0.11719 0.042968 0.23828 0.078124 0.35938 0.10156 0.17188 0 0.33984 0 0.53906 0.058594h0.30078c0.074218 0.011718 0.14844 0.011718 0.21875 0 0.19141-0.027344 0.37891-0.070313 0.5625-0.12891l0.30859-0.12109 0.32031-0.16016c0.09375-0.046876 0.1875-0.10156 0.26953-0.16797 5.1602-3.6953 9.7266-8.1562 13.551-13.219 3.2383-4.4805 4.5586-9.1289 3.9102-13.84-0.68359-5.0938-4.0859-9.4102-8.8789-11.262zm2 22.91c-3.5586 4.6758-7.7891 8.8008-12.551 12.238-5.207-2.7109-9.9805-6.1875-14.16-10.309-3.1719-3.2695-4.7891-6.8281-4.8203-10.602-0.058593-3.7656 1.9414-7.2617 5.2188-9.1172 1.1836-0.67969 2.5195-1.043 3.8828-1.0625 2.1484 0 4.3086 1 6.5117 2.9219h-0.003906c0.37109 0.33594 0.86328 0.5 1.3594 0.46094 0.49219-0.019531 0.95313-0.23828 1.2812-0.60156 3-3.6016 6.3203-4.6992 10-3.3516 3.5078 1.375 5.9961 4.5469 6.4883 8.2812 0.51172 3.7188-0.57812 7.4805-3.2188 11.141z"/>
 <path d="m86.59 17.672c-2.1797-2.1602-5.1445-3.332-8.2109-3.25l-57.27 1.2773c-3.1523 0.058593-6.1328 1.4375-8.2188 3.8008-2.0977 2.3555-3.125 5.4766-2.8398 8.6211l3.3477 36.219c0.54297 5.8281 5.4297 10.289 11.281 10.301 0.37891 0.019531 0.76172 0.019531 1.1406 0l16.941-1.6602 7.7695 10.941c0.75391 1.0781 1.9922 1.7188 3.3086 1.707h0.16016c1.3789-0.050781 2.6328-0.80469 3.3203-2l7.5195-12.809 14.891-1.4609c5.8594-0.53516 10.324-5.4766 10.27-11.359v-32.219c0.011719-3.0547-1.2188-5.9844-3.4102-8.1094zm-0.30078 40.328c0.023438 3.9414-2.9727 7.2461-6.8984 7.6094l-15.82 1.5703c-0.046874-0.003907-0.09375-0.003907-0.14062 0-0.12891 0.023437-0.25781 0.058593-0.37891 0.10937-0.097656 0.039063-0.19141 0.085938-0.28125 0.14063-0.10938 0.070312-0.21094 0.15625-0.30078 0.25-0.078125 0.070312-0.14844 0.15234-0.20703 0.24219-0.046875 0.03125-0.085938 0.074219-0.12109 0.11719l-8 13.621c-0.054687 0.10938-0.16797 0.17578-0.28906 0.16797-0.12109 0.011719-0.23437-0.042969-0.30078-0.13672l-8.3906-11.781s-0.10156-0.078125-0.14844-0.12891c-0.09375-0.11328-0.19531-0.21484-0.3125-0.30078-0.085938-0.054688-0.17578-0.10156-0.26953-0.14062-0.11328-0.0625-0.23438-0.10938-0.35938-0.14062-0.12109-0.007813-0.24219-0.007813-0.35937 0-0.082032-0.003907-0.16016-0.003907-0.24219 0l-18 1.7617c-2.0352 0.20703-4.0742-0.41406-5.6484-1.7227-1.5781-1.3086-2.5625-3.1953-2.7305-5.2383l-3.3516-36.219c-0.19531-2.1172 0.49609-4.2227 1.9102-5.8086 1.4141-1.5898 3.4258-2.5156 5.5508-2.5625l57.262-1.2812h0.17187-0.003906c2.0312 0 3.9805 0.80469 5.418 2.2383 1.4375 1.4336 2.2422 3.3828 2.2422 5.4141z"/>
<text x="0.0" y="117.5" font-size="5.0" font-weight="bold" font-family="Arbeit Regular, Helvetica, Arial-Unicode, Arial, Sans-serif" fill="#000000">Created by muhammad nasrullah</text><text x="0.0" y="122.5" font-size="5.0" font-weight="bold" font-family="Arbeit Regular, Helvetica, Arial-Unicode, Arial, Sans-serif" fill="#000000">from Noun Project</text></svg>