<svg xmlns="http://www.w3.org/2000/svg" xmlns:xlink="http://www.w3.org/1999/xlink" viewBox="0 0 100 125" version="1.1" x="0px" y="0px"><title>Like 1.3</title><desc>Created with Sketch.</desc><g stroke="none" stroke-width="1" fill="none" fill-rule="evenodd"><g fill-rule="nonzero" fill="#000000"><path d="M40.9528813,49.0762859 C39.9656237,56.3638209 40.4064694,65.8661774 41.6428524,71.0585788 C47.0060986,71.781908 63.3123369,71.9018936 66.8760325,71.3624493 C66.9965869,71.3442007 67.1136773,71.3305518 67.2867107,71.3129976 C67.9639991,71.2442871 68.1698093,71.2122559 68.4522446,71.1141587 C69.4276471,70.775376 69.9844856,69.7063504 69.8564435,66.7617309 C69.8341103,66.2481265 70.0763573,65.7588622 70.4983592,65.4652593 C72.5037825,64.0700094 72.8108514,62.5213265 72.0288847,59.8400181 C71.7813919,58.991383 72.317714,58.1138375 73.1858174,57.9470119 C73.5698254,57.8732161 74.1629308,57.0473259 74.4378968,55.8653259 C74.722219,54.6431063 74.5489421,53.5577409 74.1539794,53.2177083 C73.4819119,52.6391098 73.4558186,51.6069074 74.0977933,50.9950908 C74.5628754,50.5518569 75.0845442,49.1741657 75.0854845,48.090746 C75.0872376,46.0709274 74.4128492,45.2052662 72.436974,44.8720765 C71.2290524,44.668386 69.8542989,44.5381519 68.3457071,44.4754386 C65.8498759,44.3716849 63.1601716,44.4550401 60.5313688,44.657762 C59.8894474,44.7072642 59.3024928,44.7602492 58.7833453,44.8131268 C58.4746022,44.8445737 58.2590386,44.8687454 58.1494365,44.8820416 C57.5472303,44.9550973 56.9603038,44.658243 56.6622851,44.1298736 C56.5670788,43.9610786 56.498047,43.7625098 56.451875,43.5277912 C56.2258806,42.3789321 56.4874078,40.1241548 57.5170786,36.1648194 C58.5703539,32.1147193 55.829569,28.1687904 52.5170146,26.6806198 C51.8240256,26.3692934 51.363727,26.4704211 50.8414137,26.9229691 C50.8469669,27.0455212 50.8524213,27.1744185 50.8576753,27.3089169 C50.8937742,28.2330185 50.9113377,29.1707893 50.9001093,30.0519624 C50.8907022,30.7902017 50.861231,31.4516925 50.8076389,32.021676 C50.471701,35.5945778 49.8069093,37.6184816 47.7504331,41.5823745 C47.0323697,42.9600854 45.9331444,44.3764644 44.5524191,45.8130459 C43.7060905,46.693612 42.8038952,47.529415 41.9018261,48.2965174 C41.5859104,48.565166 41.2919372,48.8065589 41.0270086,49.0174617 C41.001181,49.0380225 40.9764622,49.057635 40.9528813,49.0762859 Z M40.6084065,45.4450558 C41.2186383,44.9007331 41.8203166,44.3263658 42.3894663,43.7341915 C43.589196,42.4859277 44.5248299,41.2803403 45.0971816,40.1821675 C46.9780339,36.556753 47.5243974,34.8933941 47.8208124,31.7408431 C47.8658585,31.2617511 47.8918973,30.677301 47.9003528,30.0137377 C47.9108377,29.1909144 47.8941971,28.3024157 47.8599616,27.4260191 C47.8436855,27.0093649 47.827499,26.6927557 47.8169595,26.5184286 C47.7987373,26.217025 47.8719041,25.9171383 48.0268896,25.6579942 C48.2099043,25.3519837 48.5162749,24.9623642 48.9648143,24.5766449 C50.2343001,23.4849568 51.9065969,23.1175525 53.7464054,23.9440895 C58.2536644,25.9689831 61.9023123,31.2219691 60.4205027,36.9198883 C59.8875369,38.9692717 59.5767903,40.5288553 59.4367804,41.7378898 C59.7127192,41.7136075 60.001073,41.6897491 60.3007066,41.6666427 C63.038267,41.4555338 65.8403244,41.3686967 68.4703119,41.4780274 C70.0963181,41.5456218 71.5930398,41.6874102 72.935818,41.9138414 C76.4085508,42.4994446 78.0884669,44.6558255 78.0854834,48.0933499 C78.0843101,49.4451325 77.6512102,50.9582934 76.9946284,52.0854721 C78.2530275,54.5429708 77.356771,58.5772039 75.2119281,60.220079 C75.8048773,63.1615419 75.2033862,65.5153432 72.871184,67.4302099 C72.868581,71.0871466 71.6604873,73.1756544 69.4365424,73.9480885 C68.8521661,74.1510576 68.510304,74.2042632 67.589505,74.2976778 C67.4619408,74.3106191 67.3848138,74.3196096 67.325034,74.3286586 C63.6494172,74.8850446 48.5199749,74.8065014 42.0859009,74.1274215 C41.9243974,74.4227044 41.6631786,74.6654188 41.3271285,74.7998001 C35.9499985,76.9500326 34.1475329,77.1123866 25.4772054,76.0403239 C24.8894442,75.9676488 24.3994677,75.5559455 24.226598,74.9894996 C21.7424934,66.8497814 22.0560907,57.842724 24.075474,45.7528766 C24.2215536,44.8783126 25.0902887,44.3206352 25.9462687,44.5519354 C30.5383873,45.7928031 33.5624522,45.9012666 39.6470852,45.2262668 C40.0022152,45.1868704 40.3350262,45.2731368 40.6084065,45.4450558 Z M26.7738199,47.8527348 C25.1378935,58.2421305 24.9110761,66.1921238 26.826424,73.1827425 C33.4375022,73.9773952 35.2177227,73.9054655 38.9216984,72.517002 C37.4220195,66.9639719 36.88716,56.4224388 38.0169057,48.4074027 C33.4550409,48.8223051 30.451323,48.7005847 26.7738199,47.8527348 Z"/></g></g><text x="0" y="115" fill="#000000" font-size="5px" font-weight="bold" font-family="'Helvetica Neue', Helvetica, Arial-Unicode, Arial, Sans-serif">Created by Landan Lloyd</text><text x="0" y="120" fill="#000000" font-size="5px" font-weight="bold" font-family="'Helvetica Neue', Helvetica, Arial-Unicode, Arial, Sans-serif">from the Noun Project</text></svg>