<svg xmlns="http://www.w3.org/2000/svg" xmlns:xlink="http://www.w3.org/1999/xlink" version="1.1" x="0px" y="0px" viewBox="-449 451 100 125" style="enable-background:new -449 451 100 100;" xml:space="preserve"><style type="text/css">
	.st0{fill:#1D1D1B;}
</style><g><path class="st0" d="M-398.5,490.1c5.4,0,9.1,5.9,9.1,10.8c0,7.4-5.6,13.7-14.3,13.7c-8.2,0-14-8.5-14-16.3   c0-9.4,7.2-18.1,18.8-18.1c11.2,0,19.1,9.2,19.1,20.3c0,13.9-9.5,24-23.9,24c-14.9,0-24.2-13.2-24.2-26.2   c0-14.2,11.4-27.9,28.8-27.9c17,0,29.1,13.5,29.1,30.1c0,19.5-14.3,34.1-33.7,34.1c-20.9,0-34.4-17.8-34.4-36.1   c0-19.1,15.7-37.8,38.8-37.8c22.8,0,39.2,17.8,39.2,39.9c0,24.8-19.1,43.9-43.4,43.9c-26.8,0-44.7-22.2-44.7-45.9   c0-23.9,20-47.7,48.8-47.7c28.5,0,49.2,22.2,49.2,49.7c0,31.7-33.3,59.9-67.5,47.2c35.2,9.5,62.5-16.8,62.5-47.2   c0-24.8-18.5-44.8-44.2-44.8c-26,0-43.8,21.3-43.8,42.8c0,21,15.8,41.1,39.7,41.1c21.8,0,38.4-16.9,38.4-39.1   c0-19.3-14.3-35-34.2-35c-20.3,0-33.8,16.2-33.8,32.9c0,15.7,11.2,31.2,29.1,31.2c16.9,0,28.9-12.2,28.9-29   c0-13.9-10.1-25.2-24.1-25.2c-14.5,0-23.8,11.2-23.8,23c0,10.4,7.3,21.2,18.9,21.2c11.5,0,19.1-7.8,19.1-19   c0-8.4-5.8-15.4-14.1-15.4c-8.8,0-13.8,6.1-13.8,13.1c0,5.2,3.4,11.3,9.6,11.3c7.8,0,10.5-8.8,6.3-13.1c-3-2.9-7.3,0.5-4.5,3.2   c2.8,2.8-1.3,6.8-4.2,3.9C-410.3,498.7-407.2,490.1-398.5,490.1z"/></g><text x="-449" y="566" fill="#000000" font-size="5px" font-weight="bold" font-family="'Helvetica Neue', Helvetica, Arial-Unicode, Arial, Sans-serif">Created by Groovy Icons</text><text x="-449" y="571" fill="#000000" font-size="5px" font-weight="bold" font-family="'Helvetica Neue', Helvetica, Arial-Unicode, Arial, Sans-serif">from the Noun Project</text></svg>